# xmcd
# 
# Track frame offsets:
#     229
#     26300
#     38086
#     59900
#     83378
#     109948
#     147522
#     159035
#     174401
#     183401
# 
# Disc length: 3077
# 
# Revision: 4
# Processed by: cddbd v1.5.2PL0 Copyright (c) Steve Scherf et al.
# Submitted via: fre:ac v1.0.31
# 
DISCID=790c020a
DTITLE=Neil Young - The Visitor
DYEAR=2017
DGENRE=Rock/Pop
TTITLE0=Already Great
TTITLE1=Fly By Night Deal
TTITLE2=Almost Always
TTITLE3=Stand Tall
TTITLE4=Change Of Heart
TTITLE5=Carnival
TTITLE6=Diggin' A Hole
TTITLE7=Children Of Destiny
TTITLE8=When Bad Got Good
TTITLE9=Forever
EXTD=Release-Date: 01.12.2017\n\nMARO\n
EXTT0=
EXTT1=
EXTT2=
EXTT3=
EXTT4=
EXTT5=
EXTT6=
EXTT7=
EXTT8=
EXTT9=
PLAYORDER=
